<svg xmlns:xlink="http://www.w3.org/1999/xlink" xmlns="http://www.w3.org/2000/svg" version="1.1" id="Capa_1" x="0px"
     y="0px" viewBox="0 0 492.983 492.983" style="enable-background:new 0 0 492.983 492.983;" xml:space="preserve">
<g id="XMLID_132_">
	<path id="XMLID_140_"
          d="M114.216,431.529l-61.571,13.089c-13.208,2.81-21.645,15.787-18.829,28.995   c2.438,11.492,12.591,19.37,23.874,19.37c1.69,0,3.409-0.174,5.11-0.541l117.686-25.027l-50.783-27.92   C124.391,437.171,119.245,434.442,114.216,431.529z"
          fill="#ff79c6"/>
    <path id="XMLID_139_"
          d="M459.167,383.165c-2.805-13.208-15.9-21.659-28.981-18.828l-76.122,16.187l1.578,49.643l84.697-18.008   C453.545,409.353,461.983,396.373,459.167,383.165z"
          fill="#ff79c6"/>
    <path id="XMLID_136_"
          d="M303.437,382.155c-12.932,0-25.573-5.164-35.055-14.921l-76.551-78.776   c-6.267-6.452-6.123-16.766,0.317-23.042c6.461-6.265,16.791-6.138,23.046,0.332l7.382,7.592l69.167,71.177   c4.772,4.908,11.968,6.357,18.255,3.685c6.318-2.683,10.248-8.841,10.043-15.69l-2.498-77.911l-0.082,0.017   c-1.844-30.756-11.313-58.977-26.229-82.07c-7.779-12.04-9.327-27.157-4.086-40.501c4.106-10.499,6.349-21.821,6.349-33.637   C293.496,44.053,246.164,0,187.79,0C129.4,0,82.068,44.053,82.068,98.408c0,11.809,2.243,23.123,6.356,33.611   c5.244,13.376,3.72,28.457-4.074,40.527c-16.68,25.805-26.629,57.984-26.629,92.977c0,56.489,25.844,105.723,64.216,132.451   l-0.03,0.041l0.409,0.23c6.858,4.741,14.135,8.728,21.711,11.934l139.268,76.575c4.119,2.273,8.686,3.404,13.241,3.404   c4.979,0,9.974-1.352,14.366-4.058c8.405-5.156,13.431-14.435,13.113-24.302l-2.61-83.184   C315.549,380.913,309.474,382.155,303.437,382.155z M106.996,111.539c0-35.147,19.351-63.641,43.206-63.641   c11.775,0,22.359,7.009,30.109,18.285c1.545,2.243,4.09,3.589,6.81,3.589c2.724,0,5.271-1.346,6.811-3.582   c7.769-11.283,18.355-18.292,30.11-18.292c23.874,0,43.224,28.494,43.224,63.641c0,35.153-23.68,69.537-80.145,69.537   C131.662,181.076,106.996,146.691,106.996,111.539z"
          fill="#ff79c6"/>
    <path id="XMLID_135_"
          d="M226.653,91.852c-9.435,0-17.507,9.725-20.734,14.219c-0.953,1.336-0.953,3.134,0,4.473   c3.227,4.502,11.3,14.236,20.734,14.236c9.438,0,17.507-9.734,20.722-14.236c0.97-1.339,0.97-3.137,0-4.473   C244.16,101.576,236.091,91.852,226.653,91.852z"
          fill="#ff79c6"/>
    <path id="XMLID_134_"
          d="M147.592,91.845c-9.439,0-17.509,9.731-20.723,14.226c-0.971,1.336-0.971,3.134,0,4.473   c3.214,4.502,11.283,14.242,20.723,14.242c9.438,0,17.518-9.74,20.732-14.242c0.974-1.339,0.974-3.137,0-4.473   C165.11,101.566,157.03,91.845,147.592,91.845z"
          fill="#ff79c6"/>
    <path id="XMLID_133_"
          d="M189.178,118.413c-1.247-0.795-2.836-0.795-4.074,0c-4.075,2.625-12.861,9.183-12.861,16.852   c0,7.832,9.168,26.363,13.117,33.995c0.349,0.667,1.032,1.081,1.779,1.081c0.749,0,1.434-0.414,1.784-1.081   c3.94-7.623,13.094-26.163,13.094-33.995C202.017,127.596,193.233,121.045,189.178,118.413z"
          fill="#ff79c6"/>
</g>
    <g>
</g>
    <g>
</g>
    <g>
</g>
    <g>
</g>
    <g>
</g>
    <g>
</g>
    <g>
</g>
    <g>
</g>
    <g>
</g>
    <g>
</g>
    <g>
</g>
    <g>
</g>
    <g>
</g>
    <g>
</g>
    <g>
</g>
</svg>